<?xml version="1.0" standalone="no"?>
<svg xmlns="http://www.w3.org/2000/svg" width="500" height="500"><defs><clipPath id="clip-path-dot-color"><circle cx="26" cy="138" r="7" transform="rotate(0,26,138)"/><path d="M 19 187v 14h 7a 7 7, 0, 0, 0, 0 -14" transform="rotate(-90,26,194)"/><rect x="19" y="201" width="14" height="14" transform="rotate(0,26,208)"/><path d="M 19 215v 14h 14v -7a 7 7, 0, 0, 0, -7 -7" transform="rotate(180,26,222)"/><path d="M 19 271v 14h 14v -7a 7 7, 0, 0, 0, -7 -7" transform="rotate(-90,26,278)"/><rect x="19" y="285" width="14" height="14" transform="rotate(0,26,292)"/><rect x="19" y="299" width="14" height="14" transform="rotate(0,26,306)"/><path d="M 19 313v 14h 14v -7a 7 7, 0, 0, 0, -7 -7" transform="rotate(180,26,320)"/><path d="M 19 341v 14h 7a 7 7, 0, 0, 0, 0 -14" transform="rotate(-90,26,348)"/><path d="M 19 355v 14h 7a 7 7, 0, 0, 0, 0 -14" transform="rotate(90,26,362)"/><path d="M 33 145v 14h 7a 7 7, 0, 0, 0, 0 -14" transform="rotate(-90,40,152)"/><path d="M 33 159v 14h 7a 7 7, 0, 0, 0, 0 -14" transform="rotate(90,40,166)"/><rect x="33" y="201" width="14" height="14" transform="rotate(0,40,208)"/><rect x="33" y="215" width="14" height="14" transform="rotate(0,40,222)"/><circle cx="40" cy="250" r="7" transform="rotate(0,40,250)"/><path d="M 33 271v 14h 7a 7 7, 0, 0, 0, 0 -14" transform="rotate(0,40,278)"/><rect x="33" y="313" width="14" height="14" transform="rotate(0,40,320)"/><path d="M 47 173v 14h 7a 7 7, 0, 0, 0, 0 -14" transform="rotate(180,54,180)"/><path d="M 47 201v 14h 14v -7a 7 7, 0, 0, 0, -7 -7" transform="rotate(0,54,208)"/><path d="M 47 215v 14h 14v -7a 7 7, 0, 0, 0, -7 -7" transform="rotate(90,54,222)"/><circle cx="54" cy="292" r="7" transform="rotate(0,54,292)"/><rect x="47" y="313" width="14" height="14" transform="rotate(0,54,320)"/><rect x="47" y="327" width="14" height="14" transform="rotate(0,54,334)"/><rect x="47" y="341" width="14" height="14" transform="rotate(0,54,348)"/><path d="M 47 355v 14h 14v -7a 7 7, 0, 0, 0, -7 -7" transform="rotate(180,54,362)"/><path d="M 61 145v 14h 14v -7a 7 7, 0, 0, 0, -7 -7" transform="rotate(-90,68,152)"/><rect x="61" y="159" width="14" height="14" transform="rotate(0,68,166)"/><rect x="61" y="173" width="14" height="14" transform="rotate(0,68,180)"/><path d="M 61 187v 14h 14v -7a 7 7, 0, 0, 0, -7 -7" transform="rotate(180,68,194)"/><path d="M 61 229v 14h 7a 7 7, 0, 0, 0, 0 -14" transform="rotate(-90,68,236)"/><path d="M 61 243v 14h 14v -7a 7 7, 0, 0, 0, -7 -7" transform="rotate(180,68,250)"/><circle cx="68" cy="278" r="7" transform="rotate(0,68,278)"/><path d="M 61 313v 14h 7a 7 7, 0, 0, 0, 0 -14" transform="rotate(0,68,320)"/><path d="M 61 355v 14h 7a 7 7, 0, 0, 0, 0 -14" transform="rotate(0,68,362)"/><path d="M 75 131v 14h 14v -7a 7 7, 0, 0, 0, -7 -7" transform="rotate(-90,82,138)"/><rect x="75" y="145" width="14" height="14" transform="rotate(0,82,152)"/><rect x="75" y="159" width="14" height="14" transform="rotate(0,82,166)"/><rect x="75" y="173" width="14" height="14" transform="rotate(0,82,180)"/><rect x="75" y="187" width="14" height="14" transform="rotate(0,82,194)"/><rect x="75" y="243" width="14" height="14" transform="rotate(0,82,250)"/><path d="M 75 257v 14h 14v -7a 7 7, 0, 0, 0, -7 -7" transform="rotate(180,82,264)"/><circle cx="82" cy="306" r="7" transform="rotate(0,82,306)"/><path d="M 75 327v 14h 7a 7 7, 0, 0, 0, 0 -14" transform="rotate(180,82,334)"/><rect x="89" y="131" width="14" height="14" transform="rotate(0,96,138)"/><path d="M 89 173v 14h 14v -7a 7 7, 0, 0, 0, -7 -7" transform="rotate(0,96,180)"/><rect x="89" y="187" width="14" height="14" transform="rotate(0,96,194)"/><path d="M 89 201v 14h 7a 7 7, 0, 0, 0, 0 -14" transform="rotate(90,96,208)"/><rect x="89" y="243" width="14" height="14" transform="rotate(0,96,250)"/><rect x="89" y="257" width="14" height="14" transform="rotate(0,96,264)"/><rect x="89" y="271" width="14" height="14" transform="rotate(0,96,278)"/><path d="M 89 285v 14h 7a 7 7, 0, 0, 0, 0 -14" transform="rotate(90,96,292)"/><rect x="89" y="327" width="14" height="14" transform="rotate(0,96,334)"/><rect x="89" y="341" width="14" height="14" transform="rotate(0,96,348)"/><path d="M 89 355v 14h 14v -7a 7 7, 0, 0, 0, -7 -7" transform="rotate(180,96,362)"/><path d="M 103 131v 14h 7a 7 7, 0, 0, 0, 0 -14" transform="rotate(0,110,138)"/><path d="M 103 159v 14h 7a 7 7, 0, 0, 0, 0 -14" transform="rotate(180,110,166)"/><rect x="103" y="187" width="14" height="14" transform="rotate(0,110,194)"/><path d="M 103 215v 14h 7a 7 7, 0, 0, 0, 0 -14" transform="rotate(180,110,222)"/><path d="M 103 243v 14h 7a 7 7, 0, 0, 0, 0 -14" transform="rotate(0,110,250)"/><path d="M 103 271v 14h 7a 7 7, 0, 0, 0, 0 -14" transform="rotate(0,110,278)"/><path d="M 103 299v 14h 7a 7 7, 0, 0, 0, 0 -14" transform="rotate(180,110,306)"/><path d="M 103 327v 14h 7a 7 7, 0, 0, 0, 0 -14" transform="rotate(0,110,334)"/><path d="M 103 355v 14h 7a 7 7, 0, 0, 0, 0 -14" transform="rotate(0,110,362)"/><path d="M 117 159v 14h 7a 7 7, 0, 0, 0, 0 -14" transform="rotate(0,124,166)"/><path d="M 117 187v 14h 14v -7a 7 7, 0, 0, 0, -7 -7" transform="rotate(0,124,194)"/><rect x="117" y="201" width="14" height="14" transform="rotate(0,124,208)"/><rect x="117" y="215" width="14" height="14" transform="rotate(0,124,222)"/><path d="M 117 285v 14h 14v -7a 7 7, 0, 0, 0, -7 -7" transform="rotate(-90,124,292)"/><rect x="117" y="299" width="14" height="14" transform="rotate(0,124,306)"/><path d="M 117 313v 14h 7a 7 7, 0, 0, 0, 0 -14" transform="rotate(90,124,320)"/><path d="M 117 341v 14h 7a 7 7, 0, 0, 0, 0 -14" transform="rotate(180,124,348)"/><path d="M 131 33v 14h 14v -7a 7 7, 0, 0, 0, -7 -7" transform="rotate(-90,138,40)"/><rect x="131" y="47" width="14" height="14" transform="rotate(0,138,54)"/><rect x="131" y="61" width="14" height="14" transform="rotate(0,138,68)"/><rect x="131" y="75" width="14" height="14" transform="rotate(0,138,82)"/><rect x="131" y="89" width="14" height="14" transform="rotate(0,138,96)"/><rect x="131" y="103" width="14" height="14" transform="rotate(0,138,110)"/><path d="M 131 117v 14h 14v -7a 7 7, 0, 0, 0, -7 -7" transform="rotate(180,138,124)"/><path d="M 131 145v 14h 7a 7 7, 0, 0, 0, 0 -14" transform="rotate(180,138,152)"/><rect x="131" y="201" width="14" height="14" transform="rotate(0,138,208)"/><rect x="131" y="215" width="14" height="14" transform="rotate(0,138,222)"/><rect x="131" y="229" width="14" height="14" transform="rotate(0,138,236)"/><rect x="131" y="243" width="14" height="14" transform="rotate(0,138,250)"/><path d="M 131 257v 14h 14v -7a 7 7, 0, 0, 0, -7 -7" transform="rotate(180,138,264)"/><rect x="131" y="285" width="14" height="14" transform="rotate(0,138,292)"/><path d="M 131 299v 14h 14v -7a 7 7, 0, 0, 0, -7 -7" transform="rotate(90,138,306)"/><path d="M 131 327v 14h 7a 7 7, 0, 0, 0, 0 -14" transform="rotate(-90,138,334)"/><rect x="131" y="341" width="14" height="14" transform="rotate(0,138,348)"/><path d="M 131 397v 14h 14v -7a 7 7, 0, 0, 0, -7 -7" transform="rotate(-90,138,404)"/><path d="M 131 411v 14h 7a 7 7, 0, 0, 0, 0 -14" transform="rotate(90,138,418)"/><path d="M 131 467v 14h 7a 7 7, 0, 0, 0, 0 -14" transform="rotate(180,138,474)"/><rect x="145" y="33" width="14" height="14" transform="rotate(0,152,40)"/><path d="M 145 75v 14h 14v -7a 7 7, 0, 0, 0, -7 -7" transform="rotate(0,152,82)"/><rect x="145" y="89" width="14" height="14" transform="rotate(0,152,96)"/><path d="M 145 117v 14h 7a 7 7, 0, 0, 0, 0 -14" transform="rotate(0,152,124)"/><path d="M 145 145v 14h 7a 7 7, 0, 0, 0, 0 -14" transform="rotate(0,152,152)"/><path d="M 145 187v 14h 14v -7a 7 7, 0, 0, 0, -7 -7" transform="rotate(-90,152,194)"/><rect x="145" y="201" width="14" height="14" transform="rotate(0,152,208)"/><rect x="145" y="243" width="14" height="14" transform="rotate(0,152,250)"/><rect x="145" y="257" width="14" height="14" transform="rotate(0,152,264)"/><path d="M 145 285v 14h 7a 7 7, 0, 0, 0, 0 -14" transform="rotate(0,152,292)"/><path d="M 145 341v 14h 7a 7 7, 0, 0, 0, 0 -14" transform="rotate(0,152,348)"/><path d="M 145 383v 14h 7a 7 7, 0, 0, 0, 0 -14" transform="rotate(-90,152,390)"/><path d="M 145 397v 14h 14v -7a 7 7, 0, 0, 0, -7 -7" transform="rotate(90,152,404)"/><path d="M 145 425v 14h 7a 7 7, 0, 0, 0, 0 -14" transform="rotate(-90,152,432)"/><path d="M 145 439v 14h 14v -7a 7 7, 0, 0, 0, -7 -7" transform="rotate(180,152,446)"/><path d="M 145 467v 14h 7a 7 7, 0, 0, 0, 0 -14" transform="rotate(0,152,474)"/><path d="M 159 19v 14h 14v -7a 7 7, 0, 0, 0, -7 -7" transform="rotate(-90,166,26)"/><rect x="159" y="33" width="14" height="14" transform="rotate(0,166,40)"/><rect x="159" y="89" width="14" height="14" transform="rotate(0,166,96)"/><path d="M 159 103v 14h 7a 7 7, 0, 0, 0, 0 -14" transform="rotate(90,166,110)"/><path d="M 159 173v 14h 14v -7a 7 7, 0, 0, 0, -7 -7" transform="rotate(-90,166,180)"/><rect x="159" y="187" width="14" height="14" transform="rotate(0,166,194)"/><rect x="159" y="201" width="14" height="14" transform="rotate(0,166,208)"/><path d="M 159 229v 14h 7a 7 7, 0, 0, 0, 0 -14" transform="rotate(-90,166,236)"/><rect x="159" y="243" width="14" height="14" transform="rotate(0,166,250)"/><rect x="159" y="257" width="14" height="14" transform="rotate(0,166,264)"/><circle cx="166" cy="306" r="7" transform="rotate(0,166,306)"/><circle cx="166" cy="334" r="7" transform="rotate(0,166,334)"/><circle cx="166" cy="376" r="7" transform="rotate(0,166,376)"/><path d="M 159 411v 14h 7a 7 7, 0, 0, 0, 0 -14" transform="rotate(180,166,418)"/><rect x="159" y="439" width="14" height="14" transform="rotate(0,166,446)"/><path d="M 159 453v 14h 14v -7a 7 7, 0, 0, 0, -7 -7" transform="rotate(180,166,460)"/><rect x="173" y="19" width="14" height="14" transform="rotate(0,180,26)"/><rect x="173" y="33" width="14" height="14" transform="rotate(0,180,40)"/><path d="M 173 47v 14h 14v -7a 7 7, 0, 0, 0, -7 -7" transform="rotate(180,180,54)"/><path d="M 173 89v 14h 7a 7 7, 0, 0, 0, 0 -14" transform="rotate(0,180,96)"/><path d="M 173 131v 14h 7a 7 7, 0, 0, 0, 0 -14" transform="rotate(180,180,138)"/><path d="M 173 159v 14h 14v -7a 7 7, 0, 0, 0, -7 -7" transform="rotate(-90,180,166)"/><rect x="173" y="173" width="14" height="14" transform="rotate(0,180,180)"/><rect x="173" y="187" width="14" height="14" transform="rotate(0,180,194)"/><path d="M 173 201v 14h 14v -7a 7 7, 0, 0, 0, -7 -7" transform="rotate(90,180,208)"/><path d="M 173 243v 14h 14v -7a 7 7, 0, 0, 0, -7 -7" transform="rotate(0,180,250)"/><rect x="173" y="257" width="14" height="14" transform="rotate(0,180,264)"/><path d="M 173 271v 14h 7a 7 7, 0, 0, 0, 0 -14" transform="rotate(90,180,278)"/><rect x="173" y="411" width="14" height="14" transform="rotate(0,180,418)"/><rect x="173" y="425" width="14" height="14" transform="rotate(0,180,432)"/><rect x="173" y="439" width="14" height="14" transform="rotate(0,180,446)"/><rect x="173" y="453" width="14" height="14" transform="rotate(0,180,460)"/><rect x="187" y="19" width="14" height="14" transform="rotate(0,194,26)"/><rect x="187" y="47" width="14" height="14" transform="rotate(0,194,54)"/><path d="M 187 61v 14h 14v -7a 7 7, 0, 0, 0, -7 -7" transform="rotate(180,194,68)"/><path d="M 187 103v 14h 7a 7 7, 0, 0, 0, 0 -14" transform="rotate(-90,194,110)"/><rect x="187" y="117" width="14" height="14" transform="rotate(0,194,124)"/><path d="M 187 131v 14h 14v -7a 7 7, 0, 0, 0, -7 -7" transform="rotate(90,194,138)"/><path d="M 187 159v 14h 14v -7a 7 7, 0, 0, 0, -7 -7" transform="rotate(0,194,166)"/><path d="M 187 173v 14h 14v -7a 7 7, 0, 0, 0, -7 -7" transform="rotate(90,194,180)"/><path d="M 187 215v 14h 14v -7a 7 7, 0, 0, 0, -7 -7" transform="rotate(-90,194,222)"/><path d="M 187 229v 14h 7a 7 7, 0, 0, 0, 0 -14" transform="rotate(90,194,236)"/><path d="M 187 299v 14h 7a 7 7, 0, 0, 0, 0 -14" transform="rotate(-90,194,306)"/><rect x="187" y="313" width="14" height="14" transform="rotate(0,194,320)"/><rect x="187" y="327" width="14" height="14" transform="rotate(0,194,334)"/><rect x="187" y="341" width="14" height="14" transform="rotate(0,194,348)"/><rect x="187" y="355" width="14" height="14" transform="rotate(0,194,362)"/><path d="M 187 369v 14h 7a 7 7, 0, 0, 0, 0 -14" transform="rotate(90,194,376)"/><path d="M 187 411v 14h 14v -7a 7 7, 0, 0, 0, -7 -7" transform="rotate(0,194,418)"/><rect x="187" y="425" width="14" height="14" transform="rotate(0,194,432)"/><rect x="187" y="453" width="14" height="14" transform="rotate(0,194,460)"/><path d="M 187 467v 14h 14v -7a 7 7, 0, 0, 0, -7 -7" transform="rotate(180,194,474)"/><path d="M 201 19v 14h 7a 7 7, 0, 0, 0, 0 -14" transform="rotate(0,208,26)"/><path d="M 201 47v 14h 14v -7a 7 7, 0, 0, 0, -7 -7" transform="rotate(0,208,54)"/><path d="M 201 61v 14h 14v -7a 7 7, 0, 0, 0, -7 -7" transform="rotate(90,208,68)"/><path d="M 201 145v 14h 7a 7 7, 0, 0, 0, 0 -14" transform="rotate(180,208,152)"/><path d="M 201 187v 14h 7a 7 7, 0, 0, 0, 0 -14" transform="rotate(-90,208,194)"/><rect x="201" y="201" width="14" height="14" transform="rotate(0,208,208)"/><rect x="201" y="215" width="14" height="14" transform="rotate(0,208,222)"/><path d="M 201 243v 14h 7a 7 7, 0, 0, 0, 0 -14" transform="rotate(-90,208,250)"/><rect x="201" y="257" width="14" height="14" transform="rotate(0,208,264)"/><path d="M 201 271v 14h 14v -7a 7 7, 0, 0, 0, -7 -7" transform="rotate(180,208,278)"/><path d="M 201 313v 14h 7a 7 7, 0, 0, 0, 0 -14" transform="rotate(0,208,320)"/><path d="M 201 355v 14h 7a 7 7, 0, 0, 0, 0 -14" transform="rotate(0,208,362)"/><circle cx="208" cy="404" r="7" transform="rotate(0,208,404)"/><rect x="201" y="425" width="14" height="14" transform="rotate(0,208,432)"/><rect x="201" y="439" width="14" height="14" transform="rotate(0,208,446)"/><rect x="201" y="453" width="14" height="14" transform="rotate(0,208,460)"/><path d="M 201 467v 14h 14v -7a 7 7, 0, 0, 0, -7 -7" transform="rotate(90,208,474)"/><path d="M 215 89v 14h 7a 7 7, 0, 0, 0, 0 -14" transform="rotate(-90,222,96)"/><path d="M 215 103v 14h 7a 7 7, 0, 0, 0, 0 -14" transform="rotate(90,222,110)"/><rect x="215" y="145" width="14" height="14" transform="rotate(0,222,152)"/><circle cx="222" cy="180" r="7" transform="rotate(0,222,180)"/><rect x="215" y="215" width="14" height="14" transform="rotate(0,222,222)"/><path d="M 215 271v 14h 7a 7 7, 0, 0, 0, 0 -14" transform="rotate(0,222,278)"/><circle cx="222" cy="306" r="7" transform="rotate(0,222,306)"/><path d="M 215 327v 14h 7a 7 7, 0, 0, 0, 0 -14" transform="rotate(180,222,334)"/><path d="M 215 369v 14h 14v -7a 7 7, 0, 0, 0, -7 -7" transform="rotate(-90,222,376)"/><path d="M 215 383v 14h 14v -7a 7 7, 0, 0, 0, -7 -7" transform="rotate(180,222,390)"/><path d="M 215 411v 14h 7a 7 7, 0, 0, 0, 0 -14" transform="rotate(-90,222,418)"/><rect x="215" y="425" width="14" height="14" transform="rotate(0,222,432)"/><rect x="215" y="439" width="14" height="14" transform="rotate(0,222,446)"/><path d="M 215 453v 14h 14v -7a 7 7, 0, 0, 0, -7 -7" transform="rotate(90,222,460)"/><path d="M 229 19v 14h 14v -7a 7 7, 0, 0, 0, -7 -7" transform="rotate(-90,236,26)"/><path d="M 229 33v 14h 14v -7a 7 7, 0, 0, 0, -7 -7" transform="rotate(180,236,40)"/><circle cx="236" cy="68" r="7" transform="rotate(0,236,68)"/><path d="M 229 131v 14h 7a 7 7, 0, 0, 0, 0 -14" transform="rotate(-90,236,138)"/><path d="M 229 145v 14h 14v -7a 7 7, 0, 0, 0, -7 -7" transform="rotate(90,236,152)"/><path d="M 229 201v 14h 14v -7a 7 7, 0, 0, 0, -7 -7" transform="rotate(-90,236,208)"/><path d="M 229 215v 14h 14v -7a 7 7, 0, 0, 0, -7 -7" transform="rotate(90,236,222)"/><circle cx="236" cy="250" r="7" transform="rotate(0,236,250)"/><path d="M 229 313v 14h 7a 7 7, 0, 0, 0, 0 -14" transform="rotate(-90,236,320)"/><rect x="229" y="327" width="14" height="14" transform="rotate(0,236,334)"/><path d="M 229 355v 14h 14v -7a 7 7, 0, 0, 0, -7 -7" transform="rotate(-90,236,362)"/><rect x="229" y="369" width="14" height="14" transform="rotate(0,236,376)"/><path d="M 229 383v 14h 14v -7a 7 7, 0, 0, 0, -7 -7" transform="rotate(90,236,390)"/><path d="M 229 439v 14h 7a 7 7, 0, 0, 0, 0 -14" transform="rotate(0,236,446)"/><path d="M 243 19v 14h 14v -7a 7 7, 0, 0, 0, -7 -7" transform="rotate(0,250,26)"/><rect x="243" y="33" width="14" height="14" transform="rotate(0,250,40)"/><path d="M 243 47v 14h 14v -7a 7 7, 0, 0, 0, -7 -7" transform="rotate(180,250,54)"/><path d="M 243 103v 14h 7a 7 7, 0, 0, 0, 0 -14" transform="rotate(-90,250,110)"/><path d="M 243 117v 14h 7a 7 7, 0, 0, 0, 0 -14" transform="rotate(90,250,124)"/><path d="M 243 173v 14h 14v -7a 7 7, 0, 0, 0, -7 -7" transform="rotate(-90,250,180)"/><rect x="243" y="187" width="14" height="14" transform="rotate(0,250,194)"/><path d="M 243 201v 14h 14v -7a 7 7, 0, 0, 0, -7 -7" transform="rotate(90,250,208)"/><path d="M 243 257v 14h 7a 7 7, 0, 0, 0, 0 -14" transform="rotate(-90,250,264)"/><path d="M 243 271v 14h 14v -7a 7 7, 0, 0, 0, -7 -7" transform="rotate(180,250,278)"/><path d="M 243 327v 14h 7a 7 7, 0, 0, 0, 0 -14" transform="rotate(0,250,334)"/><path d="M 243 355v 14h 14v -7a 7 7, 0, 0, 0, -7 -7" transform="rotate(0,250,362)"/><path d="M 243 369v 14h 14v -7a 7 7, 0, 0, 0, -7 -7" transform="rotate(90,250,376)"/><path d="M 243 397v 14h 14v -7a 7 7, 0, 0, 0, -7 -7" transform="rotate(-90,250,404)"/><rect x="243" y="411" width="14" height="14" transform="rotate(0,250,418)"/><path d="M 243 425v 14h 14v -7a 7 7, 0, 0, 0, -7 -7" transform="rotate(180,250,432)"/><path d="M 243 467v 14h 7a 7 7, 0, 0, 0, 0 -14" transform="rotate(180,250,474)"/><path d="M 257 33v 14h 14v -7a 7 7, 0, 0, 0, -7 -7" transform="rotate(0,264,40)"/><rect x="257" y="47" width="14" height="14" transform="rotate(0,264,54)"/><path d="M 257 61v 14h 7a 7 7, 0, 0, 0, 0 -14" transform="rotate(90,264,68)"/><path d="M 257 145v 14h 7a 7 7, 0, 0, 0, 0 -14" transform="rotate(-90,264,152)"/><rect x="257" y="159" width="14" height="14" transform="rotate(0,264,166)"/><rect x="257" y="173" width="14" height="14" transform="rotate(0,264,180)"/><path d="M 257 229v 14h 14v -7a 7 7, 0, 0, 0, -7 -7" transform="rotate(-90,264,236)"/><path d="M 257 243v 14h 7a 7 7, 0, 0, 0, 0 -14" transform="rotate(90,264,250)"/><rect x="257" y="271" width="14" height="14" transform="rotate(0,264,278)"/><path d="M 257 299v 14h 7a 7 7, 0, 0, 0, 0 -14" transform="rotate(-90,264,306)"/><path d="M 257 313v 14h 14v -7a 7 7, 0, 0, 0, -7 -7" transform="rotate(180,264,320)"/><circle cx="264" cy="348" r="7" transform="rotate(0,264,348)"/><path d="M 257 383v 14h 7a 7 7, 0, 0, 0, 0 -14" transform="rotate(-90,264,390)"/><rect x="257" y="397" width="14" height="14" transform="rotate(0,264,404)"/><path d="M 257 425v 14h 14v -7a 7 7, 0, 0, 0, -7 -7" transform="rotate(0,264,432)"/><path d="M 257 439v 14h 14v -7a 7 7, 0, 0, 0, -7 -7" transform="rotate(180,264,446)"/><path d="M 257 467v 14h 7a 7 7, 0, 0, 0, 0 -14" transform="rotate(0,264,474)"/><path d="M 271 75v 14h 7a 7 7, 0, 0, 0, 0 -14" transform="rotate(-90,278,82)"/><rect x="271" y="89" width="14" height="14" transform="rotate(0,278,96)"/><path d="M 271 103v 14h 7a 7 7, 0, 0, 0, 0 -14" transform="rotate(90,278,110)"/><path d="M 271 159v 14h 14v -7a 7 7, 0, 0, 0, -7 -7" transform="rotate(0,278,166)"/><rect x="271" y="173" width="14" height="14" transform="rotate(0,278,180)"/><path d="M 271 201v 14h 14v -7a 7 7, 0, 0, 0, -7 -7" transform="rotate(-90,278,208)"/><rect x="271" y="215" width="14" height="14" transform="rotate(0,278,222)"/><rect x="271" y="229" width="14" height="14" transform="rotate(0,278,236)"/><path d="M 271 257v 14h 7a 7 7, 0, 0, 0, 0 -14" transform="rotate(-90,278,264)"/><rect x="271" y="271" width="14" height="14" transform="rotate(0,278,278)"/><rect x="271" y="313" width="14" height="14" transform="rotate(0,278,320)"/><path d="M 271 355v 14h 7a 7 7, 0, 0, 0, 0 -14" transform="rotate(180,278,362)"/><rect x="271" y="397" width="14" height="14" transform="rotate(0,278,404)"/><path d="M 271 411v 14h 14v -7a 7 7, 0, 0, 0, -7 -7" transform="rotate(180,278,418)"/><rect x="271" y="439" width="14" height="14" transform="rotate(0,278,446)"/><path d="M 271 453v 14h 14v -7a 7 7, 0, 0, 0, -7 -7" transform="rotate(180,278,460)"/><path d="M 285 33v 14h 14v -7a 7 7, 0, 0, 0, -7 -7" transform="rotate(-90,292,40)"/><path d="M 285 47v 14h 14v -7a 7 7, 0, 0, 0, -7 -7" transform="rotate(180,292,54)"/><rect x="285" y="173" width="14" height="14" transform="rotate(0,292,180)"/><rect x="285" y="187" width="14" height="14" transform="rotate(0,292,194)"/><rect x="285" y="201" width="14" height="14" transform="rotate(0,292,208)"/><path d="M 285 229v 14h 7a 7 7, 0, 0, 0, 0 -14" transform="rotate(0,292,236)"/><path d="M 285 271v 14h 14v -7a 7 7, 0, 0, 0, -7 -7" transform="rotate(0,292,278)"/><path d="M 285 285v 14h 7a 7 7, 0, 0, 0, 0 -14" transform="rotate(90,292,292)"/><rect x="285" y="313" width="14" height="14" transform="rotate(0,292,320)"/><rect x="285" y="327" width="14" height="14" transform="rotate(0,292,334)"/><rect x="285" y="341" width="14" height="14" transform="rotate(0,292,348)"/><rect x="285" y="355" width="14" height="14" transform="rotate(0,292,362)"/><rect x="285" y="369" width="14" height="14" transform="rotate(0,292,376)"/><rect x="285" y="383" width="14" height="14" transform="rotate(0,292,390)"/><rect x="285" y="397" width="14" height="14" transform="rotate(0,292,404)"/><rect x="285" y="411" width="14" height="14" transform="rotate(0,292,418)"/><rect x="285" y="425" width="14" height="14" transform="rotate(0,292,432)"/><rect x="285" y="439" width="14" height="14" transform="rotate(0,292,446)"/><rect x="285" y="453" width="14" height="14" transform="rotate(0,292,460)"/><path d="M 285 467v 14h 7a 7 7, 0, 0, 0, 0 -14" transform="rotate(90,292,474)"/><path d="M 299 33v 14h 14v -7a 7 7, 0, 0, 0, -7 -7" transform="rotate(0,306,40)"/><path d="M 299 47v 14h 14v -7a 7 7, 0, 0, 0, -7 -7" transform="rotate(90,306,54)"/><path d="M 299 75v 14h 7a 7 7, 0, 0, 0, 0 -14" transform="rotate(-90,306,82)"/><rect x="299" y="89" width="14" height="14" transform="rotate(0,306,96)"/><path d="M 299 103v 14h 7a 7 7, 0, 0, 0, 0 -14" transform="rotate(90,306,110)"/><path d="M 299 131v 14h 14v -7a 7 7, 0, 0, 0, -7 -7" transform="rotate(-90,306,138)"/><path d="M 299 145v 14h 14v -7a 7 7, 0, 0, 0, -7 -7" transform="rotate(180,306,152)"/><path d="M 299 173v 14h 14v -7a 7 7, 0, 0, 0, -7 -7" transform="rotate(0,306,180)"/><rect x="299" y="187" width="14" height="14" transform="rotate(0,306,194)"/><path d="M 299 201v 14h 14v -7a 7 7, 0, 0, 0, -7 -7" transform="rotate(90,306,208)"/><path d="M 299 243v 14h 7a 7 7, 0, 0, 0, 0 -14" transform="rotate(180,306,250)"/><path d="M 299 313v 14h 7a 7 7, 0, 0, 0, 0 -14" transform="rotate(0,306,320)"/><path d="M 299 355v 14h 14v -7a 7 7, 0, 0, 0, -7 -7" transform="rotate(0,306,362)"/><path d="M 299 369v 14h 14v -7a 7 7, 0, 0, 0, -7 -7" transform="rotate(90,306,376)"/><path d="M 299 411v 14h 14v -7a 7 7, 0, 0, 0, -7 -7" transform="rotate(0,306,418)"/><path d="M 299 425v 14h 14v -7a 7 7, 0, 0, 0, -7 -7" transform="rotate(90,306,432)"/><path d="M 313 19v 14h 7a 7 7, 0, 0, 0, 0 -14" transform="rotate(180,320,26)"/><path d="M 313 117v 14h 14v -7a 7 7, 0, 0, 0, -7 -7" transform="rotate(-90,320,124)"/><rect x="313" y="131" width="14" height="14" transform="rotate(0,320,138)"/><rect x="313" y="145" width="14" height="14" transform="rotate(0,320,152)"/><path d="M 313 159v 14h 7a 7 7, 0, 0, 0, 0 -14" transform="rotate(90,320,166)"/><rect x="313" y="187" width="14" height="14" transform="rotate(0,320,194)"/><circle cx="320" cy="222" r="7" transform="rotate(0,320,222)"/><path d="M 313 243v 14h 7a 7 7, 0, 0, 0, 0 -14" transform="rotate(0,320,250)"/><circle cx="320" cy="306" r="7" transform="rotate(0,320,306)"/><path d="M 313 327v 14h 7a 7 7, 0, 0, 0, 0 -14" transform="rotate(180,320,334)"/><path d="M 313 397v 14h 7a 7 7, 0, 0, 0, 0 -14" transform="rotate(180,320,404)"/><circle cx="320" cy="474" r="7" transform="rotate(0,320,474)"/><rect x="327" y="19" width="14" height="14" transform="rotate(0,334,26)"/><path d="M 327 75v 14h 14v -7a 7 7, 0, 0, 0, -7 -7" transform="rotate(-90,334,82)"/><rect x="327" y="89" width="14" height="14" transform="rotate(0,334,96)"/><rect x="327" y="103" width="14" height="14" transform="rotate(0,334,110)"/><path d="M 327 117v 14h 14v -7a 7 7, 0, 0, 0, -7 -7" transform="rotate(90,334,124)"/><path d="M 327 187v 14h 14v -7a 7 7, 0, 0, 0, -7 -7" transform="rotate(0,334,194)"/><path d="M 327 201v 14h 14v -7a 7 7, 0, 0, 0, -7 -7" transform="rotate(180,334,208)"/><path d="M 327 271v 14h 7a 7 7, 0, 0, 0, 0 -14" transform="rotate(-90,334,278)"/><path d="M 327 285v 14h 14v -7a 7 7, 0, 0, 0, -7 -7" transform="rotate(180,334,292)"/><path d="M 327 313v 14h 14v -7a 7 7, 0, 0, 0, -7 -7" transform="rotate(-90,334,320)"/><path d="M 327 327v 14h 14v -7a 7 7, 0, 0, 0, -7 -7" transform="rotate(90,334,334)"/><path d="M 327 355v 14h 14v -7a 7 7, 0, 0, 0, -7 -7" transform="rotate(-90,334,362)"/><path d="M 327 369v 14h 7a 7 7, 0, 0, 0, 0 -14" transform="rotate(90,334,376)"/><rect x="327" y="397" width="14" height="14" transform="rotate(0,334,404)"/><path d="M 327 425v 14h 14v -7a 7 7, 0, 0, 0, -7 -7" transform="rotate(-90,334,432)"/><rect x="327" y="439" width="14" height="14" transform="rotate(0,334,446)"/><path d="M 327 453v 14h 14v -7a 7 7, 0, 0, 0, -7 -7" transform="rotate(180,334,460)"/><rect x="341" y="19" width="14" height="14" transform="rotate(0,348,26)"/><path d="M 341 47v 14h 7a 7 7, 0, 0, 0, 0 -14" transform="rotate(180,348,54)"/><path d="M 341 75v 14h 7a 7 7, 0, 0, 0, 0 -14" transform="rotate(0,348,82)"/><path d="M 341 145v 14h 7a 7 7, 0, 0, 0, 0 -14" transform="rotate(-90,348,152)"/><path d="M 341 159v 14h 14v -7a 7 7, 0, 0, 0, -7 -7" transform="rotate(180,348,166)"/><path d="M 341 201v 14h 7a 7 7, 0, 0, 0, 0 -14" transform="rotate(0,348,208)"/><rect x="341" y="285" width="14" height="14" transform="rotate(0,348,292)"/><rect x="341" y="299" width="14" height="14" transform="rotate(0,348,306)"/><path d="M 341 313v 14h 14v -7a 7 7, 0, 0, 0, -7 -7" transform="rotate(90,348,320)"/><rect x="341" y="355" width="14" height="14" transform="rotate(0,348,362)"/><path d="M 341 383v 14h 14v -7a 7 7, 0, 0, 0, -7 -7" transform="rotate(-90,348,390)"/><rect x="341" y="397" width="14" height="14" transform="rotate(0,348,404)"/><rect x="341" y="425" width="14" height="14" transform="rotate(0,348,432)"/><rect x="341" y="439" width="14" height="14" transform="rotate(0,348,446)"/><rect x="341" y="453" width="14" height="14" transform="rotate(0,348,460)"/><path d="M 341 467v 14h 7a 7 7, 0, 0, 0, 0 -14" transform="rotate(90,348,474)"/><path d="M 355 19v 14h 7a 7 7, 0, 0, 0, 0 -14" transform="rotate(0,362,26)"/><path d="M 355 47v 14h 14v -7a 7 7, 0, 0, 0, -7 -7" transform="rotate(0,362,54)"/><path d="M 355 61v 14h 7a 7 7, 0, 0, 0, 0 -14" transform="rotate(90,362,68)"/><circle cx="362" cy="110" r="7" transform="rotate(0,362,110)"/><path d="M 355 131v 14h 7a 7 7, 0, 0, 0, 0 -14" transform="rotate(180,362,138)"/><rect x="355" y="159" width="14" height="14" transform="rotate(0,362,166)"/><path d="M 355 173v 14h 14v -7a 7 7, 0, 0, 0, -7 -7" transform="rotate(180,362,180)"/><path d="M 355 229v 14h 7a 7 7, 0, 0, 0, 0 -14" transform="rotate(-90,362,236)"/><rect x="355" y="243" width="14" height="14" transform="rotate(0,362,250)"/><path d="M 355 257v 14h 7a 7 7, 0, 0, 0, 0 -14" transform="rotate(90,362,264)"/><rect x="355" y="285" width="14" height="14" transform="rotate(0,362,292)"/><path d="M 355 299v 14h 14v -7a 7 7, 0, 0, 0, -7 -7" transform="rotate(90,362,306)"/><path d="M 355 327v 14h 7a 7 7, 0, 0, 0, 0 -14" transform="rotate(-90,362,334)"/><rect x="355" y="341" width="14" height="14" transform="rotate(0,362,348)"/><rect x="355" y="355" width="14" height="14" transform="rotate(0,362,362)"/><rect x="355" y="369" width="14" height="14" transform="rotate(0,362,376)"/><rect x="355" y="383" width="14" height="14" transform="rotate(0,362,390)"/><rect x="355" y="397" width="14" height="14" transform="rotate(0,362,404)"/><rect x="355" y="411" width="14" height="14" transform="rotate(0,362,418)"/><path d="M 355 425v 14h 14v -7a 7 7, 0, 0, 0, -7 -7" transform="rotate(90,362,432)"/><rect x="369" y="131" width="14" height="14" transform="rotate(0,376,138)"/><rect x="369" y="145" width="14" height="14" transform="rotate(0,376,152)"/><rect x="369" y="159" width="14" height="14" transform="rotate(0,376,166)"/><rect x="369" y="173" width="14" height="14" transform="rotate(0,376,180)"/><path d="M 369 187v 14h 7a 7 7, 0, 0, 0, 0 -14" transform="rotate(90,376,194)"/><rect x="369" y="243" width="14" height="14" transform="rotate(0,376,250)"/><path d="M 369 285v 14h 7a 7 7, 0, 0, 0, 0 -14" transform="rotate(0,376,292)"/><rect x="369" y="341" width="14" height="14" transform="rotate(0,376,348)"/><rect x="369" y="355" width="14" height="14" transform="rotate(0,376,362)"/><rect x="369" y="411" width="14" height="14" transform="rotate(0,376,418)"/><path d="M 369 439v 14h 7a 7 7, 0, 0, 0, 0 -14" transform="rotate(180,376,446)"/><circle cx="376" cy="474" r="7" transform="rotate(0,376,474)"/><rect x="383" y="131" width="14" height="14" transform="rotate(0,390,138)"/><rect x="383" y="145" width="14" height="14" transform="rotate(0,390,152)"/><rect x="383" y="173" width="14" height="14" transform="rotate(0,390,180)"/><path d="M 383 229v 14h 14v -7a 7 7, 0, 0, 0, -7 -7" transform="rotate(-90,390,236)"/><rect x="383" y="243" width="14" height="14" transform="rotate(0,390,250)"/><path d="M 383 257v 14h 7a 7 7, 0, 0, 0, 0 -14" transform="rotate(90,390,264)"/><path d="M 383 299v 14h 7a 7 7, 0, 0, 0, 0 -14" transform="rotate(180,390,306)"/><path d="M 383 327v 14h 7a 7 7, 0, 0, 0, 0 -14" transform="rotate(-90,390,334)"/><rect x="383" y="341" width="14" height="14" transform="rotate(0,390,348)"/><rect x="383" y="355" width="14" height="14" transform="rotate(0,390,362)"/><circle cx="390" cy="390" r="7" transform="rotate(0,390,390)"/><rect x="383" y="411" width="14" height="14" transform="rotate(0,390,418)"/><rect x="383" y="439" width="14" height="14" transform="rotate(0,390,446)"/><path d="M 383 453v 14h 14v -7a 7 7, 0, 0, 0, -7 -7" transform="rotate(180,390,460)"/><rect x="397" y="131" width="14" height="14" transform="rotate(0,404,138)"/><rect x="397" y="145" width="14" height="14" transform="rotate(0,404,152)"/><rect x="397" y="159" width="14" height="14" transform="rotate(0,404,166)"/><rect x="397" y="173" width="14" height="14" transform="rotate(0,404,180)"/><path d="M 397 201v 14h 14v -7a 7 7, 0, 0, 0, -7 -7" transform="rotate(-90,404,208)"/><rect x="397" y="215" width="14" height="14" transform="rotate(0,404,222)"/><rect x="397" y="229" width="14" height="14" transform="rotate(0,404,236)"/><path d="M 397 243v 14h 14v -7a 7 7, 0, 0, 0, -7 -7" transform="rotate(90,404,250)"/><path d="M 397 285v 14h 14v -7a 7 7, 0, 0, 0, -7 -7" transform="rotate(-90,404,292)"/><rect x="397" y="299" width="14" height="14" transform="rotate(0,404,306)"/><path d="M 397 341v 14h 14v -7a 7 7, 0, 0, 0, -7 -7" transform="rotate(0,404,348)"/><rect x="397" y="355" width="14" height="14" transform="rotate(0,404,362)"/><rect x="397" y="411" width="14" height="14" transform="rotate(0,404,418)"/><rect x="397" y="425" width="14" height="14" transform="rotate(0,404,432)"/><rect x="397" y="439" width="14" height="14" transform="rotate(0,404,446)"/><rect x="397" y="453" width="14" height="14" transform="rotate(0,404,460)"/><path d="M 397 467v 14h 7a 7 7, 0, 0, 0, 0 -14" transform="rotate(90,404,474)"/><rect x="411" y="131" width="14" height="14" transform="rotate(0,418,138)"/><path d="M 411 173v 14h 7a 7 7, 0, 0, 0, 0 -14" transform="rotate(0,418,180)"/><path d="M 411 201v 14h 14v -7a 7 7, 0, 0, 0, -7 -7" transform="rotate(0,418,208)"/><rect x="411" y="215" width="14" height="14" transform="rotate(0,418,222)"/><circle cx="418" cy="264" r="7" transform="rotate(0,418,264)"/><path d="M 411 285v 14h 14v -7a 7 7, 0, 0, 0, -7 -7" transform="rotate(0,418,292)"/><rect x="411" y="299" width="14" height="14" transform="rotate(0,418,306)"/><rect x="411" y="313" width="14" height="14" transform="rotate(0,418,320)"/><path d="M 411 327v 14h 7a 7 7, 0, 0, 0, 0 -14" transform="rotate(90,418,334)"/><path d="M 411 355v 14h 14v -7a 7 7, 0, 0, 0, -7 -7" transform="rotate(0,418,362)"/><rect x="411" y="369" width="14" height="14" transform="rotate(0,418,376)"/><rect x="411" y="383" width="14" height="14" transform="rotate(0,418,390)"/><rect x="411" y="397" width="14" height="14" transform="rotate(0,418,404)"/><rect x="411" y="411" width="14" height="14" transform="rotate(0,418,418)"/><path d="M 411 425v 14h 14v -7a 7 7, 0, 0, 0, -7 -7" transform="rotate(90,418,432)"/><rect x="425" y="131" width="14" height="14" transform="rotate(0,432,138)"/><circle cx="432" cy="166" r="7" transform="rotate(0,432,166)"/><path d="M 425 215v 14h 14v -7a 7 7, 0, 0, 0, -7 -7" transform="rotate(0,432,222)"/><rect x="425" y="229" width="14" height="14" transform="rotate(0,432,236)"/><path d="M 425 243v 14h 7a 7 7, 0, 0, 0, 0 -14" transform="rotate(90,432,250)"/><circle cx="432" cy="278" r="7" transform="rotate(0,432,278)"/><rect x="425" y="313" width="14" height="14" transform="rotate(0,432,320)"/><path d="M 425 341v 14h 7a 7 7, 0, 0, 0, 0 -14" transform="rotate(180,432,348)"/><path d="M 425 369v 14h 7a 7 7, 0, 0, 0, 0 -14" transform="rotate(0,432,376)"/><path d="M 425 411v 14h 7a 7 7, 0, 0, 0, 0 -14" transform="rotate(0,432,418)"/><path d="M 425 439v 14h 7a 7 7, 0, 0, 0, 0 -14" transform="rotate(180,432,446)"/><circle cx="432" cy="474" r="7" transform="rotate(0,432,474)"/><rect x="439" y="131" width="14" height="14" transform="rotate(0,446,138)"/><path d="M 439 173v 14h 14v -7a 7 7, 0, 0, 0, -7 -7" transform="rotate(-90,446,180)"/><path d="M 439 187v 14h 14v -7a 7 7, 0, 0, 0, -7 -7" transform="rotate(180,446,194)"/><path d="M 439 299v 14h 7a 7 7, 0, 0, 0, 0 -14" transform="rotate(-90,446,306)"/><rect x="439" y="313" width="14" height="14" transform="rotate(0,446,320)"/><rect x="439" y="327" width="14" height="14" transform="rotate(0,446,334)"/><path d="M 439 341v 14h 14v -7a 7 7, 0, 0, 0, -7 -7" transform="rotate(90,446,348)"/><path d="M 439 383v 14h 7a 7 7, 0, 0, 0, 0 -14" transform="rotate(-90,446,390)"/><path d="M 439 397v 14h 7a 7 7, 0, 0, 0, 0 -14" transform="rotate(90,446,404)"/><path d="M 439 425v 14h 14v -7a 7 7, 0, 0, 0, -7 -7" transform="rotate(-90,446,432)"/><rect x="439" y="439" width="14" height="14" transform="rotate(0,446,446)"/><path d="M 453 131v 14h 7a 7 7, 0, 0, 0, 0 -14" transform="rotate(0,460,138)"/><path d="M 453 159v 14h 7a 7 7, 0, 0, 0, 0 -14" transform="rotate(-90,460,166)"/><rect x="453" y="173" width="14" height="14" transform="rotate(0,460,180)"/><rect x="453" y="187" width="14" height="14" transform="rotate(0,460,194)"/><path d="M 453 201v 14h 7a 7 7, 0, 0, 0, 0 -14" transform="rotate(90,460,208)"/><path d="M 453 243v 14h 7a 7 7, 0, 0, 0, 0 -14" transform="rotate(-90,460,250)"/><rect x="453" y="257" width="14" height="14" transform="rotate(0,460,264)"/><path d="M 453 271v 14h 14v -7a 7 7, 0, 0, 0, -7 -7" transform="rotate(180,460,278)"/><path d="M 453 313v 14h 14v -7a 7 7, 0, 0, 0, -7 -7" transform="rotate(0,460,320)"/><path d="M 453 327v 14h 14v -7a 7 7, 0, 0, 0, -7 -7" transform="rotate(90,460,334)"/><path d="M 453 355v 14h 7a 7 7, 0, 0, 0, 0 -14" transform="rotate(180,460,362)"/><path d="M 453 411v 14h 7a 7 7, 0, 0, 0, 0 -14" transform="rotate(-90,460,418)"/><rect x="453" y="425" width="14" height="14" transform="rotate(0,460,432)"/><rect x="453" y="439" width="14" height="14" transform="rotate(0,460,446)"/><circle cx="474" cy="152" r="7" transform="rotate(0,474,152)"/><circle cx="474" cy="222" r="7" transform="rotate(0,474,222)"/><path d="M 467 271v 14h 7a 7 7, 0, 0, 0, 0 -14" transform="rotate(0,474,278)"/><path d="M 467 341v 14h 7a 7 7, 0, 0, 0, 0 -14" transform="rotate(-90,474,348)"/><path d="M 467 355v 14h 14v -7a 7 7, 0, 0, 0, -7 -7" transform="rotate(90,474,362)"/><path d="M 467 383v 14h 7a 7 7, 0, 0, 0, 0 -14" transform="rotate(-90,474,390)"/><path d="M 467 397v 14h 7a 7 7, 0, 0, 0, 0 -14" transform="rotate(90,474,404)"/><path d="M 467 425v 14h 14v -7a 7 7, 0, 0, 0, -7 -7" transform="rotate(0,474,432)"/><rect x="467" y="439" width="14" height="14" transform="rotate(0,474,446)"/><path d="M 467 453v 14h 7a 7 7, 0, 0, 0, 0 -14" transform="rotate(90,474,460)"/><path clip-rule="evenodd" d="M 19 54v 28a 35 35, 0, 0, 0, 35 35h 28a 35 35, 0, 0, 0, 35 -35v -28a 35 35, 0, 0, 0, -35 -35h -28a 35 35, 0, 0, 0, -35 35M 54 33h 28a 21 21, 0, 0, 1, 21 21v 28a 21 21, 0, 0, 1, -21 21h -28a 21 21, 0, 0, 1, -21 -21v -28a 21 21, 0, 0, 1, 21 -21" transform="rotate(0,68,68)"/><circle cx="68" cy="68" r="21" transform="rotate(0,68,68)"/><path clip-rule="evenodd" d="M 383 54v 28a 35 35, 0, 0, 0, 35 35h 28a 35 35, 0, 0, 0, 35 -35v -28a 35 35, 0, 0, 0, -35 -35h -28a 35 35, 0, 0, 0, -35 35M 418 33h 28a 21 21, 0, 0, 1, 21 21v 28a 21 21, 0, 0, 1, -21 21h -28a 21 21, 0, 0, 1, -21 -21v -28a 21 21, 0, 0, 1, 21 -21" transform="rotate(90,432,68)"/><circle cx="432" cy="68" r="21" transform="rotate(90,432,68)"/><path clip-rule="evenodd" d="M 19 418v 28a 35 35, 0, 0, 0, 35 35h 28a 35 35, 0, 0, 0, 35 -35v -28a 35 35, 0, 0, 0, -35 -35h -28a 35 35, 0, 0, 0, -35 35M 54 397h 28a 21 21, 0, 0, 1, 21 21v 28a 21 21, 0, 0, 1, -21 21h -28a 21 21, 0, 0, 1, -21 -21v -28a 21 21, 0, 0, 1, 21 -21" transform="rotate(-90,68,432)"/><circle cx="68" cy="432" r="21" transform="rotate(-90,68,432)"/></clipPath></defs><rect x="0" y="0" height="500" width="500" clip-path="url('#clip-path-background-color')" fill="#fff"/><rect x="0" y="0" height="500" width="500" clip-path="url('#clip-path-dot-color')" fill="#000000"/></svg>