<?xml version="1.0" encoding="UTF-8"?><svg id="Layer_1" xmlns="http://www.w3.org/2000/svg" xmlns:xlink="http://www.w3.org/1999/xlink" viewBox="0 0 500 500"><defs><style>.cls-1,.cls-2{fill:none;}.cls-2{clip-path:url(#clippath);}.cls-3{clip-path:url(#clippath-1);}.cls-4{clip-path:url(#clippath-2);}.cls-5{fill:#fff;}</style><clipPath id="clippath"><polygon class="cls-1" points="1 1 2 1 1 2 1 1"/></clipPath><clipPath id="clippath-1"><polygon class="cls-2" points="-1 -1 -2 -1 -1 -2 -1 -1"/></clipPath><clipPath id="clippath-2"><path class="cls-1" d="M383,19v98h98V19h-98ZM397,33h70v70h-70V33ZM355,19v14h14v-14h-14ZM341,19v14h14v-14h-14ZM327,19v14h14v-14h-14ZM313,19v14h14v-14h-14ZM243,19v42h14V19h-14ZM229,19v28h14v-28h-14ZM201,19v14h14v-14h-14ZM187,19v14h14v-14h-14ZM173,19v42h14V19h-14ZM159,19v28h14v-28h-14ZM19,19v98h98V19H19ZM33,33h70v70H33V33ZM299,33v28h14v-28h-14ZM285,33v28h14v-28h-14ZM257,33v42h14v-42h-14ZM145,33v14h14v-14h-14ZM131,33v98h14V33h-14ZM411,47v42h42v-42h-42ZM355,47v28h14v-28h-14ZM341,47v14h14v-14h-14ZM201,47v28h14v-28h-14ZM187,47v28h14v-28h-14ZM47,47v42h42v-42h-42ZM229,61v14h14v-14h-14ZM341,75v14h14v-14h-14ZM327,75v56h14v-56h-14ZM299,75v42h14v-42h-14ZM271,75v42h14v-42h-14ZM145,75v28h14v-28h-14ZM215,89v28h14v-28h-14ZM173,89v14h14v-14h-14ZM159,89v28h14v-28h-14ZM355,103v14h14v-14h-14ZM243,103v28h14v-28h-14ZM187,103v42h14v-42h-14ZM313,117v56h14v-56h-14ZM145,117v14h14v-14h-14ZM453,131v14h14v-14h-14ZM439,131v14h14v-14h-14ZM425,131v14h14v-14h-14ZM411,131v14h14v-14h-14ZM397,131v56h14v-56h-14ZM383,131v28h14v-28h-14ZM369,131v70h14v-70h-14ZM355,131v14h14v-14h-14ZM299,131v28h14v-28h-14ZM229,131v28h14v-28h-14ZM173,131v14h14v-14h-14ZM103,131v14h14v-14h-14ZM89,131v14h14v-14h-14ZM75,131v70h14v-70h-14ZM19,131v14h14v-14h-14ZM467,145v14h14v-14h-14ZM341,145v28h14v-28h-14ZM257,145v42h14v-42h-14ZM215,145v14h14v-14h-14ZM201,145v14h14v-14h-14ZM145,145v14h14v-14h-14ZM131,145v14h14v-14h-14ZM61,145v56h14v-56h-14ZM33,145v28h14v-28h-14ZM453,159v56h14v-56h-14ZM425,159v14h14v-14h-14ZM355,159v28h14v-28h-14ZM271,159v28h14v-28h-14ZM187,159v28h14v-28h-14ZM173,159v56h14v-56h-14ZM117,159v14h14v-14h-14ZM103,159v14h14v-14h-14ZM439,173v28h14v-28h-14ZM411,173v14h14v-14h-14ZM383,173v14h14v-14h-14ZM299,173v42h14v-42h-14ZM285,173v42h14v-42h-14ZM243,173v42h14v-42h-14ZM215,173v14h14v-14h-14ZM159,173v42h14v-42h-14ZM89,173v42h14v-42h-14ZM47,173v14h14v-14h-14ZM327,187v28h14v-28h-14ZM313,187v14h14v-14h-14ZM201,187v42h14v-42h-14ZM145,187v28h14v-28h-14ZM117,187v42h14v-42h-14ZM103,187v14h14v-14h-14ZM19,187v42h14v-42h-14ZM411,201v28h14v-28h-14ZM397,201v56h14v-56h-14ZM341,201v14h14v-14h-14ZM271,201v42h14v-42h-14ZM229,201v28h14v-28h-14ZM131,201v70h14v-70h-14ZM47,201v28h14v-28h-14ZM33,201v28h14v-28h-14ZM467,215v14h14v-14h-14ZM425,215v42h14v-42h-14ZM313,215v14h14v-14h-14ZM215,215v14h14v-14h-14ZM187,215v28h14v-28h-14ZM103,215v14h14v-14h-14ZM383,229v42h14v-42h-14ZM355,229v42h14v-42h-14ZM285,229v14h14v-14h-14ZM257,229v28h14v-28h-14ZM159,229v42h14v-42h-14ZM61,229v28h14v-28h-14ZM453,243v42h14v-42h-14ZM369,243v14h14v-14h-14ZM313,243v14h14v-14h-14ZM299,243v14h14v-14h-14ZM229,243v14h14v-14h-14ZM201,243v42h14v-42h-14ZM173,243v42h14v-42h-14ZM145,243v28h14v-28h-14ZM103,243v14h14v-14h-14ZM89,243v56h14v-56h-14ZM75,243v28h14v-28h-14ZM33,243v14h14v-14h-14ZM411,257v14h14v-14h-14ZM271,257v28h14v-28h-14ZM243,257v28h14v-28h-14ZM467,271v14h14v-14h-14ZM425,271v14h14v-14h-14ZM327,271v28h14v-28h-14ZM285,271v28h14v-28h-14ZM257,271v14h14v-14h-14ZM215,271v14h14v-14h-14ZM103,271v14h14v-14h-14ZM61,271v14h14v-14h-14ZM33,271v14h14v-14h-14ZM19,271v56h14v-56h-14ZM411,285v56h14v-56h-14ZM397,285v28h14v-28h-14ZM369,285v14h14v-14h-14ZM355,285v28h14v-28h-14ZM341,285v42h14v-42h-14ZM145,285v14h14v-14h-14ZM131,285v28h14v-28h-14ZM117,285v42h14v-42h-14ZM47,285v14h14v-14h-14ZM439,299v56h14v-56h-14ZM383,299v14h14v-14h-14ZM313,299v14h14v-14h-14ZM257,299v28h14v-28h-14ZM215,299v14h14v-14h-14ZM187,299v84h14v-84h-14ZM159,299v14h14v-14h-14ZM103,299v14h14v-14h-14ZM75,299v14h14v-14h-14ZM453,313v28h14v-28h-14ZM425,313v14h14v-14h-14ZM327,313v28h14v-28h-14ZM299,313v14h14v-14h-14ZM285,313v168h14v-168h-14ZM271,313v14h14v-14h-14ZM229,313v28h14v-28h-14ZM201,313v14h14v-14h-14ZM61,313v14h14v-14h-14ZM47,313v56h14v-56h-14ZM33,313v14h14v-14h-14ZM383,327v42h14v-42h-14ZM355,327v112h14v-112h-14ZM313,327v14h14v-14h-14ZM243,327v14h14v-14h-14ZM215,327v14h14v-14h-14ZM159,327v14h14v-14h-14ZM131,327v28h14v-28h-14ZM103,327v14h14v-14h-14ZM89,327v42h14v-42h-14ZM75,327v14h14v-14h-14ZM467,341v28h14v-28h-14ZM425,341v14h14v-14h-14ZM397,341v28h14v-28h-14ZM369,341v28h14v-28h-14ZM257,341v14h14v-14h-14ZM145,341v14h14v-14h-14ZM117,341v14h14v-14h-14ZM19,341v28h14v-28h-14ZM453,355v14h14v-14h-14ZM411,355v84h14v-84h-14ZM341,355v14h14v-14h-14ZM327,355v28h14v-28h-14ZM299,355v28h14v-28h-14ZM271,355v14h14v-14h-14ZM243,355v28h14v-28h-14ZM229,355v42h14v-42h-14ZM201,355v14h14v-14h-14ZM103,355v14h14v-14h-14ZM61,355v14h14v-14h-14ZM425,369v14h14v-14h-14ZM215,369v28h14v-28h-14ZM159,369v14h14v-14h-14ZM467,383v28h14v-28h-14ZM439,383v28h14v-28h-14ZM383,383v14h14v-14h-14ZM341,383v28h14v-28h-14ZM257,383v28h14v-28h-14ZM145,383v28h14v-28h-14ZM19,383v98h98v-98H19ZM33,397h70v70H33v-70ZM327,397v14h14v-14h-14ZM313,397v14h14v-14h-14ZM271,397v28h14v-28h-14ZM243,397v42h14v-42h-14ZM201,397v14h14v-14h-14ZM131,397v28h14v-28h-14ZM453,411v42h14v-42h-14ZM425,411v14h14v-14h-14ZM397,411v70h14v-70h-14ZM383,411v14h14v-14h-14ZM369,411v14h14v-14h-14ZM299,411v28h14v-28h-14ZM215,411v56h14v-56h-14ZM187,411v28h14v-28h-14ZM173,411v56h14v-56h-14ZM159,411v14h14v-14h-14ZM47,411v42h42v-42h-42ZM467,425v42h14v-42h-14ZM439,425v28h14v-28h-14ZM341,425v56h14v-56h-14ZM327,425v42h14v-42h-14ZM257,425v28h14v-28h-14ZM201,425v56h14v-56h-14ZM145,425v28h14v-28h-14ZM425,439v14h14v-14h-14ZM383,439v28h14v-28h-14ZM369,439v14h14v-14h-14ZM271,439v28h14v-28h-14ZM229,439v14h14v-14h-14ZM159,439v28h14v-28h-14ZM187,453v28h14v-28h-14ZM425,467v14h14v-14h-14ZM369,467v14h14v-14h-14ZM313,467v14h14v-14h-14ZM257,467v14h14v-14h-14ZM243,467v14h14v-14h-14ZM145,467v14h14v-14h-14ZM131,467v14h14v-14h-14Z"/></clipPath></defs><g class="cls-3"><rect class="cls-5" width="500" height="500"/></g><g class="cls-4"><rect width="500" height="500"/></g></svg>